<mxfile host="app.diagrams.net" modified="2022-04-29T12:55:34.012Z" agent="5.0 (Windows NT 10.0; Win64; x64) AppleWebKit/537.36 (KHTML, like Gecko) Chrome/100.0.4896.127 Safari/537.36 Edg/100.0.1185.50" etag="wsRD1FgLb6GIj0G6CcJ-" version="17.4.6" type="github">
  <diagram id="psGeP14kc1IUkHYdgIUR" name="Page-1">
    <mxGraphModel dx="1038" dy="579" grid="1" gridSize="10" guides="1" tooltips="1" connect="1" arrows="1" fold="1" page="1" pageScale="1" pageWidth="850" pageHeight="1100" math="0" shadow="0">
      <root>
        <mxCell id="0" />
        <mxCell id="1" parent="0" />
        <mxCell id="JzpPmLVhMbZYnu-l_976-4" value="" style="edgeStyle=orthogonalEdgeStyle;rounded=0;orthogonalLoop=1;jettySize=auto;html=1;" edge="1" parent="1" source="JzpPmLVhMbZYnu-l_976-1" target="JzpPmLVhMbZYnu-l_976-2">
          <mxGeometry relative="1" as="geometry" />
        </mxCell>
        <mxCell id="JzpPmLVhMbZYnu-l_976-1" value="start" style="rounded=1;whiteSpace=wrap;html=1;" vertex="1" parent="1">
          <mxGeometry x="80" y="30" width="90" height="20" as="geometry" />
        </mxCell>
        <mxCell id="JzpPmLVhMbZYnu-l_976-6" value="" style="edgeStyle=orthogonalEdgeStyle;rounded=0;orthogonalLoop=1;jettySize=auto;html=1;" edge="1" parent="1" source="JzpPmLVhMbZYnu-l_976-2" target="JzpPmLVhMbZYnu-l_976-5">
          <mxGeometry relative="1" as="geometry" />
        </mxCell>
        <mxCell id="JzpPmLVhMbZYnu-l_976-2" value="get the pop grp leader" style="rounded=0;whiteSpace=wrap;html=1;" vertex="1" parent="1">
          <mxGeometry x="65" y="90" width="120" height="60" as="geometry" />
        </mxCell>
        <mxCell id="JzpPmLVhMbZYnu-l_976-8" value="" style="edgeStyle=orthogonalEdgeStyle;rounded=0;orthogonalLoop=1;jettySize=auto;html=1;" edge="1" parent="1" source="JzpPmLVhMbZYnu-l_976-5" target="JzpPmLVhMbZYnu-l_976-7">
          <mxGeometry relative="1" as="geometry" />
        </mxCell>
        <mxCell id="JzpPmLVhMbZYnu-l_976-5" value="IF target truck not undefined" style="rhombus;whiteSpace=wrap;html=1;" vertex="1" parent="1">
          <mxGeometry x="85" y="190" width="80" height="80" as="geometry" />
        </mxCell>
        <mxCell id="JzpPmLVhMbZYnu-l_976-10" value="" style="edgeStyle=orthogonalEdgeStyle;rounded=0;orthogonalLoop=1;jettySize=auto;html=1;" edge="1" parent="1" source="JzpPmLVhMbZYnu-l_976-7" target="JzpPmLVhMbZYnu-l_976-9">
          <mxGeometry relative="1" as="geometry">
            <Array as="points">
              <mxPoint x="210" y="350" />
              <mxPoint x="210" y="80" />
            </Array>
          </mxGeometry>
        </mxCell>
        <mxCell id="JzpPmLVhMbZYnu-l_976-7" value="get the primary queue slot and queue pop" style="whiteSpace=wrap;html=1;" vertex="1" parent="1">
          <mxGeometry x="65" y="320" width="120" height="60" as="geometry" />
        </mxCell>
        <mxCell id="JzpPmLVhMbZYnu-l_976-12" value="yes" style="edgeStyle=orthogonalEdgeStyle;rounded=0;orthogonalLoop=1;jettySize=auto;html=1;" edge="1" parent="1" source="JzpPmLVhMbZYnu-l_976-9" target="JzpPmLVhMbZYnu-l_976-11">
          <mxGeometry relative="1" as="geometry">
            <Array as="points">
              <mxPoint x="290" y="150" />
              <mxPoint x="290" y="150" />
            </Array>
          </mxGeometry>
        </mxCell>
        <mxCell id="JzpPmLVhMbZYnu-l_976-18" value="NO" style="edgeStyle=orthogonalEdgeStyle;rounded=0;orthogonalLoop=1;jettySize=auto;html=1;" edge="1" parent="1" source="JzpPmLVhMbZYnu-l_976-9" target="JzpPmLVhMbZYnu-l_976-17">
          <mxGeometry relative="1" as="geometry">
            <Array as="points">
              <mxPoint x="360" y="80" />
              <mxPoint x="360" y="80" />
            </Array>
          </mxGeometry>
        </mxCell>
        <mxCell id="JzpPmLVhMbZYnu-l_976-9" value="IF queue pop &amp;gt;=&amp;nbsp; q slot" style="rhombus;whiteSpace=wrap;html=1;" vertex="1" parent="1">
          <mxGeometry x="250" y="40" width="80" height="80" as="geometry" />
        </mxCell>
        <mxCell id="JzpPmLVhMbZYnu-l_976-16" value="yes" style="edgeStyle=orthogonalEdgeStyle;rounded=0;orthogonalLoop=1;jettySize=auto;html=1;" edge="1" parent="1" source="JzpPmLVhMbZYnu-l_976-11" target="JzpPmLVhMbZYnu-l_976-15">
          <mxGeometry relative="1" as="geometry" />
        </mxCell>
        <mxCell id="JzpPmLVhMbZYnu-l_976-11" value="IF arena &amp;gt;= 7" style="rhombus;whiteSpace=wrap;html=1;" vertex="1" parent="1">
          <mxGeometry x="250" y="170" width="80" height="80" as="geometry" />
        </mxCell>
        <mxCell id="JzpPmLVhMbZYnu-l_976-15" value="call&amp;nbsp;airportQueueing&amp;nbsp;" style="rounded=1;whiteSpace=wrap;html=1;fillColor=#f8cecc;gradientColor=#ea6b66;strokeColor=#b85450;" vertex="1" parent="1">
          <mxGeometry x="230" y="280" width="120" height="60" as="geometry" />
        </mxCell>
        <mxCell id="JzpPmLVhMbZYnu-l_976-20" value="" style="edgeStyle=orthogonalEdgeStyle;rounded=0;orthogonalLoop=1;jettySize=auto;html=1;" edge="1" parent="1" source="JzpPmLVhMbZYnu-l_976-17" target="JzpPmLVhMbZYnu-l_976-19">
          <mxGeometry relative="1" as="geometry" />
        </mxCell>
        <mxCell id="JzpPmLVhMbZYnu-l_976-17" value="ELSE" style="rhombus;whiteSpace=wrap;html=1;" vertex="1" parent="1">
          <mxGeometry x="410" y="40" width="80" height="80" as="geometry" />
        </mxCell>
        <mxCell id="JzpPmLVhMbZYnu-l_976-22" value="" style="edgeStyle=orthogonalEdgeStyle;rounded=0;orthogonalLoop=1;jettySize=auto;html=1;" edge="1" parent="1" source="JzpPmLVhMbZYnu-l_976-19" target="JzpPmLVhMbZYnu-l_976-21">
          <mxGeometry relative="1" as="geometry" />
        </mxCell>
        <mxCell id="JzpPmLVhMbZYnu-l_976-19" value="call&amp;nbsp;queuing for primary queue&amp;nbsp;" style="rounded=1;whiteSpace=wrap;html=1;fillColor=#f8cecc;gradientColor=#ea6b66;strokeColor=#b85450;" vertex="1" parent="1">
          <mxGeometry x="390" y="180" width="120" height="60" as="geometry" />
        </mxCell>
        <mxCell id="JzpPmLVhMbZYnu-l_976-21" value="end" style="ellipse;whiteSpace=wrap;html=1;" vertex="1" parent="1">
          <mxGeometry x="405" y="285" width="90" height="50" as="geometry" />
        </mxCell>
      </root>
    </mxGraphModel>
  </diagram>
</mxfile>
